<?xml version="1.0" encoding="utf-8"?>
<!-- Generator: Avocode 2.6.0 - http://avocode.com -->
<svg height="74" width="76" xmlns:xlink="http://www.w3.org/1999/xlink" xmlns="http://www.w3.org/2000/svg" viewBox="0 0 76 74">
    <path stroke-linejoin="round" stroke-linecap="round" stroke-width="1" stroke="#878787" fill="none" fill-rule="evenodd" d="M 66.11 38.62 L 66.11 47.62" />
    <path stroke-linejoin="round" stroke-linecap="round" stroke-width="1" stroke="#878787" fill="none" fill-rule="evenodd" d="M 58.11 38.62 L 58.11 47.62" />
    <path stroke-linejoin="round" stroke-linecap="round" stroke-width="1" stroke="#878787" fill="none" fill-rule="evenodd" d="M 50.11 38.62 L 50.11 47.62" />
    <path stroke-linejoin="round" stroke-linecap="round" stroke-width="1" stroke="#878787" fill="none" fill-rule="evenodd" d="M 42.11 38.62 L 42.11 47.62" />
    <path stroke-linejoin="round" stroke-linecap="round" stroke-width="1" stroke="#878787" fill="none" fill-rule="evenodd" d="M 34.11 38.62 L 34.11 47.62" />
    <path stroke-linejoin="round" stroke-linecap="round" stroke-width="1" stroke="#878787" fill="none" fill-rule="evenodd" d="M 51.12 58.25 C 51.12 58.25 46.47 64.82 43.53 66.07" />
    <path stroke-linejoin="round" stroke-linecap="round" stroke-width="1" stroke="#878787" fill="none" fill-rule="evenodd" d="M 19.39 24.31 C 19.39 24.31 9.42 23.57 6.59 34.57" />
    <path stroke-linejoin="round" stroke-linecap="round" stroke-width="1" stroke="#878787" fill="none" fill-rule="evenodd" d="M 6.02 38.87 C 6.02 38.87 5.91 43.29 6.59 44.42" />
    <path stroke-linejoin="round" stroke-linecap="round" stroke-width="2" stroke="#585858" fill="none" fill-rule="evenodd" d="M 63.02 37.29 C 63.02 37.29 59.45 25.03 55.37 23.42 C 46.48 17.62 30.61 22.29 30.61 22.29 C 30.61 22.29 12.48 18.16 6.59 25.03 C 2.73 29.76 -2.93 39.27 5 55.6 C 8.85 62.69 17.47 72.57 22.22 73 C 26.53 73 29.48 70.64 30.61 71.28 C 31.74 71.93 32.88 72.36 35.6 73 C 39.22 73 49.67 70.34 58.51 56.38" />
    <path stroke-linejoin="round" stroke-linecap="round" stroke-width="2" stroke="#585858" fill="none" fill-rule="evenodd" d="M 30.61 21.52 C 30.61 21.52 31.91 20.84 31.4 15.74 C 30.89 10.3 27.83 2.48 26.98 1.8" />
    <path stroke-linejoin="round" stroke-linecap="round" stroke-width="2" stroke="#585858" fill="none" fill-rule="evenodd" d="M 59.24 26.4 C 59.24 26.4 73.05 25.02 74.46 28.96 C 74.92 32.36 75.09 37.54 71.24 37.99 C 64.21 38.45 18.61 38.31 18.61 38.31 L 18.61 54.61 L 68.46 54.61 C 68.46 54.61 73.83 53.77 74.65 50.37 C 75.03 46.52 74.82 32.95 74.82 32.95" />
</svg>