<?xml version="1.0" encoding="utf-8"?>
<!-- Generator: Avocode 2.6.0 - http://avocode.com -->
<svg height="76" width="76" xmlns:xlink="http://www.w3.org/1999/xlink" xmlns="http://www.w3.org/2000/svg" viewBox="0 0 76 76">
    <path stroke-linejoin="round" stroke-linecap="round" stroke-width="1" stroke="#878787" fill="none" fill-rule="evenodd" d="M 56.84 17.74 L 69.15 6.89" />
    <path stroke-linejoin="round" stroke-linecap="round" stroke-width="2" stroke="#585858" fill="none" fill-rule="evenodd" d="M 35.52 19.8 L 1 70.83 C 1 70.83 1.6 76.24 4.9 74.74 C 8.51 72.63 58.04 36.91 58.04 36.91 C 58.04 36.91 64.64 28.51 56.84 19.8 C 51.43 14.1 41.69 10.69 35.52 19.8 L 35.52 19.8 Z M 35.52 19.8" />
    <path stroke-linejoin="round" stroke-linecap="round" stroke-width="2" stroke="#585858" fill="none" fill-rule="evenodd" d="M 54.56 17.74 L 60.65 1.79" />
    <path stroke-linejoin="round" stroke-linecap="round" stroke-width="2" stroke="#585858" fill="none" fill-rule="evenodd" d="M 56.84 19.8 L 74.25 15.6" />
    <path stroke-linejoin="round" stroke-linecap="round" stroke-width="1" stroke="#878787" fill="none" fill-rule="evenodd" d="M 52.63 22.8 C 52.63 22.8 57.98 30.01 54.86 33.01 C 51.43 36.01 11.81 64.53 11.81 64.53" />
</svg>